<?xml version="1.0" encoding="utf-8"?>
<!-- Generator: Adobe Illustrator 24.1.0, SVG Export Plug-In . SVG Version: 6.00 Build 0)  -->
<svg version="1.1" id="Layer_1" xmlns="http://www.w3.org/2000/svg" xmlns:xlink="http://www.w3.org/1999/xlink" x="0px" y="0px"
	 viewBox="0 0 45 58" style="enable-background:new 0 0 45 58;" xml:space="preserve">
<style type="text/css">
	.st0{fill:none;}
	.st1{fill:#FFFFFF;}
</style>
<g id="Layer_1_1_">
	<rect id="canvas_background" class="st0" width="45" height="58"/>
	<g id="svg_4">
		<path id="svg_1" d="M22.5,1.7c5.7,0.1,11.1,2.5,15.1,6.6c4,4.6,6.6,9.6,6.6,15.7c0,6.2-2.4,12.1-6.6,16.7L22.5,56.3L7.4,40.6
			C3.1,36.1,0.7,30.2,0.8,24C0.7,18.1,3.1,12.4,7.4,8.3C11.4,4.2,16.8,1.9,22.5,1.7z"/>
	</g>
</g>
<g id="Layer_2_1_">
	<path class="st1" d="M32.1,15.3H16.4v-0.8c0-0.2-0.2-0.4-0.4-0.4l0,0h-1.2c-0.2,0-0.4,0.2-0.4,0.4l0,0v23c0,0.2,0.2,0.4,0.4,0.4h0
		H16c0.2,0,0.4-0.2,0.4-0.4l0,0v-9.2h15.7c0.2,0,0.4-0.2,0.4-0.4V15.7C32.5,15.5,32.3,15.3,32.1,15.3z M15.6,37.1h-0.4V14.9h0.4
		V37.1z M31.7,19.9h-3.8v3.8h3.8v3.8h-3.8v-3.8h-3.8v3.8h-3.8v-3.8h-3.8v-3.8h3.8V16h3.8v3.8h3.8V16h3.8V19.9z"/>
	<rect x="20.3" y="19.9" class="st1" width="3.8" height="3.8"/>
</g>
</svg>
