<svg width="1600" height="1600" xmlns="http://www.w3.org/2000/svg">

 <g>
  <title>background</title>
  <rect fill="none" id="canvas_background" height="1602" width="1602" y="-1" x="-1"/>
 </g>
 <g>
  <title>Layer 1</title>
  <path id="svg_1" d="m800,154.250641c131.541443,0 263.082764,59.79155 358.749268,155.458069c95.666504,107.624817 155.45813,227.207916 155.45813,370.707611s-59.791626,298.957764 -155.45813,394.624207l-358.749268,370.707642l-358.749329,-370.707642c-95.666504,-95.666443 -155.458038,-239.166138 -155.458038,-394.624207c0,-143.499695 47.833221,-263.082794 155.458038,-370.707611c95.666504,-95.666519 227.207947,-155.458069 358.749329,-155.458069z" class="path1" fill="#3dc26a"/>
  <path id="svg_2" d="m8,15.8l-4.4,-4.6c-1.2,-1.2 -1.9,-2.9 -1.9,-4.7c0,-1.7 0.6,-3.2 1.8,-4.5c1.3,-1.2 2.8,-1.8 4.5,-1.8s3.2,0.7 4.4,1.9c1.200001,1.2 1.8,2.8 1.8,4.5s-0.7,3.5 -1.8,4.7l-4.4,4.5zm-4,-5.1l4,4.1l3.9,-4.1c1,-1.099999 1.6,-2.599999 1.6,-4.2c0,-1.5 -0.6,-2.9 -1.6,-4s-2.4,-1.7 -3.9,-1.7s-2.9,0.6 -4,1.7c-1,1.1 -1.6,2.5 -1.6,4c0,1.6 0.6,3.2 1.6,4.2l0,0z" class="path2" fill="#fff"/>
  <path id="svg_3" d="m8,16l-4.5,-4.7c-1.2,-1.2 -1.9,-3 -1.9,-4.8c0,-1.7 0.6,-3.3 1.9,-4.6c1.2,-1.2 2.8,-1.9 4.5,-1.9s3.3,0.7 4.5,1.9c1.2,1.3 1.9,2.9 1.9,4.6c0,1.8 -0.7,3.6 -1.9,4.8l-4.5,4.7zm0,-15.7c-1.6,0 -3.2,0.7 -4.3,1.9c-1.2,1.2 -1.8,2.7 -1.8,4.3c0,1.7 0.7,3.4 1.8,4.5l4.3,4.5l4.3,-4.5c1.099999,-1.2 1.8,-2.9 1.8,-4.5s-0.6,-3.1 -1.8,-4.4c-1.2,-1.1 -2.7,-1.8 -4.3,-1.8zm0,14.8l-4.1,-4.200001c-1,-1.2 -1.7,-2.799999 -1.7,-4.4s0.6,-3 1.7,-4.1c1.1,-1.1 2.6,-1.7 4.1,-1.7s3,0.6 4.1,1.7c1.099999,1.1 1.7,2.6 1.7,4.1c0,1.6 -0.6,3.2 -1.7,4.3l-4.1,4.3zm-3.8,-4.5l3.8,4l3.8,-4c1,-1 1.599999,-2.6 1.599999,-4.1s-0.599999,-2.8 -1.599999,-3.9c-1,-1 -2.400001,-1.6 -3.8,-1.6s-2.8,0.6 -3.8,1.6c-1,1.1 -1.6,2.4 -1.6,3.9c0,1.6 0.6,3.1 1.6,4.1l0,0z" class="path3" fill="#fff"/>
  <!-- Generator: Sketch 52.5 (67469) - http://www.bohemiancoding.com/sketch -->
  <desc>Created with Sketch.</desc>
  <!-- Generator: Sketch 52.5 (67469) - http://www.bohemiancoding.com/sketch -->
  <desc>Created with Sketch.</desc>
  <g id="svg_37">
   <g transform="matrix(29.6296, 0, 0, 29.6296, 0, 0)" fill-rule="evenodd" fill="none" id="svg_29">
    <g id="svg_30">
     <g id="svg_31">
      <g id="svg_32">
       <g id="svg_36">
        <polygon points="15.101276397705078,9.498771518468857 39.10127639770508,9.498771518468857 39.10127639770508,33.49877247214317 15.101276397705078,33.49877247214317 " id="svg_34"/>
        <path fill="#FFFFFF" id="svg_33" d="m34.02129,15.508781c-0.200012,-0.590088 -0.76001,-1.01001 -1.420013,-1.01001l-11,0c-0.660004,0 -1.209991,0.419922 -1.420013,1.01001l-1.970001,5.669922c-0.069977,0.209961 -0.109985,0.430176 -0.109985,0.660156l0,7.159912c0,0.830078 0.670013,1.5 1.5,1.5c0.829987,0 1.5,-0.669922 1.5,-1.5l0,-0.5l12,0l0,0.5c0,0.820068 0.670013,1.5 1.5,1.5c0.820007,0 1.5,-0.669922 1.5,-1.5l0,-7.159912c0,-0.219971 -0.040009,-0.450195 -0.109985,-0.660156l-1.970001,-5.669922zm-12.420013,9.98999c-0.829987,0 -1.5,-0.669922 -1.5,-1.5c0,-0.830078 0.670013,-1.5 1.5,-1.5c0.829987,0 1.5,0.669922 1.5,1.5c0,0.830078 -0.670013,1.5 -1.5,1.5zm11,0c-0.829987,0 -1.5,-0.669922 -1.5,-1.5c0,-0.830078 0.670013,-1.5 1.5,-1.5c0.829987,0 1.5,0.669922 1.5,1.5c0,0.830078 -0.670013,1.5 -1.5,1.5zm-12.5,-5l1.269989,-3.820068c0.140015,-0.399902 0.52002,-0.679932 0.950012,-0.679932l9.559998,0c0.429993,0 0.809998,0.280029 0.950012,0.679932l1.269989,3.820068l-14,0z"/>
       </g>
      </g>
     </g>
    </g>
   </g>
  </g>
 </g>
</svg>